<?xml version="1.0" standalone="no"?>
<!DOCTYPE svg PUBLIC "-//W3C//DTD SVG 20010904//EN"
 "http://www.w3.org/TR/2001/REC-SVG-20010904/DTD/svg10.dtd">
<svg version="1.0" xmlns="http://www.w3.org/2000/svg"
 width="158.000000pt" height="158.000000pt" viewBox="0 0 158.000000 158.000000"
 preserveAspectRatio="xMidYMid meet">
<metadata>
Created by potrace 1.16, written by Peter Selinger 2001-2019
</metadata>
<g transform="translate(0.000000,158.000000) scale(0.100000,-0.100000)"
fill="#000000" stroke="none">
<path d="M795 1320 c-50 -94 -93 -170 -97 -170 -4 0 -19 23 -33 50 -14 28 -34
64 -44 81 l-19 31 -146 -279 c-80 -154 -146 -282 -146 -285 0 -4 9 -4 20 -1
21 6 44 44 170 288 46 88 88 166 95 174 10 11 21 -2 58 -69 43 -80 45 -82 57
-59 18 33 68 127 124 232 26 48 49 87 51 87 5 0 52 -85 158 -290 165 -318 192
-363 210 -366 9 -1 17 2 17 7 0 5 -46 95 -101 201 -115 219 -281 532 -283 535
-1 1 -42 -74 -91 -167z"/>
<path d="M624 1025 c-157 -24 -139 -45 76 -90 77 -16 120 -37 120 -58 0 -28
-85 -69 -290 -143 l-95 -34 309 3 309 2 29 36 c16 19 31 52 35 73 12 75 -59
111 -287 146 -184 29 -201 40 -98 66 53 12 53 12 13 12 -22 0 -77 -6 -121 -13z"/>
<path d="M292 338 l3 -113 498 -3 497 -2 0 115 0 115 -500 0 -501 0 3 -112z"/>
</g>
</svg>
